Coordinates
version=1
nRows=9
nColumns=36
inDegrees=yes

Units are S.I. units (second, meters, Newtons, ...)
If the header above contains a line with 'inDegrees', this indicates whether rotational values are in degrees (yes) or radians (no).

endheader
time	pelvis_tilt	pelvis_list	pelvis_rotation	pelvis_tx	pelvis_ty	pelvis_tz	hip_flexion_r	hip_adduction_r	hip_rotation_r	knee_angle_r	knee_angle_r_beta	ankle_angle_r	subtalar_angle_r	mtp_angle_r	hip_flexion_l	hip_adduction_l	hip_rotation_l	knee_angle_l	knee_angle_l_beta	ankle_angle_l	subtalar_angle_l	mtp_angle_l	lumbar_extension	lumbar_bending	lumbar_rotation	arm_flex_r	arm_add_r	arm_rot_r	elbow_flex_r	pro_sup_r	arm_flex_l	arm_add_l	arm_rot_l	elbow_flex_l	pro_sup_l
      3.71250000	    -13.82180221	     -2.73365877	      2.27999726	      0.26606417	      0.91163658	     -0.08028598	     27.34658276	     -2.44239175	      0.90174317	     25.58075598	      0.44646842	     10.99882314	     -1.25346297	     -7.49999987	     28.95776604	     -7.74206278	      3.15841680	     25.63344828	      0.44738807	      7.71855263	     -3.29258759	     -7.49999987	     -8.98419556	     -1.02356768	     -6.10073386	     12.30483033	     -9.42206836	   -345.24710452	     80.41407025	     82.89143044	     17.58715270	    -12.56684093	     11.25775472	     59.05266975	     67.02907728
      3.71666670	    -13.74250293	     -2.69300767	      2.32006243	      0.26616289	      0.91203476	     -0.08224688	     26.75458268	     -2.47682321	      0.95399578	     24.90180513	      0.43461849	     10.65007566	     -1.93046803	     -7.49999987	     28.30904458	     -7.63143815	      3.00804378	     24.82011882	      0.43319279	      7.72607745	     -3.30035949	     -7.49999987	     -8.45152340	     -1.04432213	     -6.29941017	     11.62396634	     -9.46569011	   -345.46085480	     79.36036139	     83.13836564	     16.61173293	    -12.55275966	     10.41356860	     57.98509289	     67.41006242
      3.72083330	    -13.45905615	     -2.62322450	      2.24470506	      0.26860293	      0.91646378	     -0.08250516	     25.78184994	     -2.45482821	      1.17902901	     23.90292948	      0.41718482	     10.11688074	     -2.52950026	     -7.49999987	     27.26892495	     -7.54110461	      2.91499865	     23.74439073	      0.41441780	      7.51938123	     -3.33815525	     -7.49999987	     -8.08956754	     -1.19691927	     -6.28230297	     10.86965834	     -9.46454387	   -345.87698338	     78.38976485	     82.98111960	     15.79957989	    -12.58838814	      9.87957195	     56.67843917	     67.69733276
      3.72500000	    -13.45283045	     -2.65038704	      2.30259883	      0.27083553	      0.91934461	     -0.08072341	     25.07325167	     -2.38257559	      1.15581466	     22.90040311	      0.39968743	      9.83252632	     -2.57755481	     -7.49999987	     26.61226402	     -7.49884667	      3.03718767	     22.70322016	      0.39624594	      7.32869958	     -3.27932589	     -7.49999987	     -7.61024361	     -1.17837269	     -6.31211790	      9.97564924	     -9.66033634	   -345.97457883	     77.97191589	     83.17351631	     14.75579391	    -12.84700470	      9.75046359	     56.00635687	     67.81145404
      3.72916670	    -13.00463796	     -2.60375363	      2.21883084	      0.27455740	      0.92051918	     -0.07896920	     23.78361295	     -2.16872139	      1.60712765	     21.65579772	      0.37796497	      8.77617600	     -3.59916425	     -7.49999987	     25.27578045	     -7.58122303	      2.72232964	     21.35124676	      0.37264956	      6.71907622	     -3.04195758	     -7.49999987	     -7.22466895	     -1.41644694	     -6.84035848	     10.27810678	     -9.34231987	   -345.24093488	     74.87779114	     84.36797158	     13.51281471	    -12.69804539	      7.18954720	     53.97452599	     70.42864733
      3.73333330	    -12.67580952	     -2.62504845	      2.08715514	      0.27563418	      0.92521420	     -0.07907040	     22.72441234	     -1.88661993	      2.02402628	     20.47981723	      0.35744024	      8.33181649	     -3.41177588	     -7.49999987	     24.12153125	     -7.68087433	      2.68999949	     20.12812564	      0.35130206	      6.26214971	     -2.91320486	     -7.49999987	     -7.07306613	     -1.51227614	     -6.80612920	      9.61095063	     -9.19835877	   -345.60791446	     73.51134716	     83.67027940	     12.59240270	    -12.69236436	      6.53423495	     52.83644492	     70.41856873
      3.73750000	    -12.34564197	     -2.67119122	      1.91918975	      0.27624480	      0.92490143	     -0.08049000	     21.81393764	     -1.67892968	      2.51598629	     19.49970593	      0.34033407	      8.03222995	     -3.53829155	     -7.49999987	     23.11919778	     -7.75163455	      2.60720630	     19.07616918	      0.33294196	      5.95267948	     -2.78406875	     -7.49999987	     -6.85891218	     -1.50760691	     -6.86558489	      9.30892042	     -9.27590565	   -345.55047833	     71.79386893	     83.96066584	     11.74027431	    -12.59974979	      5.63689553	     51.43718755	     70.82482328
      3.74166670	    -12.05763242	     -2.59260363	      1.80603445	      0.27867665	      0.92798044	     -0.08210416	     20.86968166	     -1.70508006	      2.86934814	     18.43581788	      0.32176572	      7.54211776	     -3.56770212	     -7.49999987	     22.09451001	     -7.59509688	      2.45615542	     18.03202939	      0.31471828	      5.45728988	     -2.86285130	     -7.49999987	     -6.67738351	     -1.51812187	     -6.76706945	      8.74367249	     -9.36070726	   -345.95284119	     70.35373221	     83.75943049	     11.04143974	    -12.44094360	      4.99584837	     49.96545064	     71.06872313
      3.74583330	    -11.81944884	     -2.52506518	      1.69080751	      0.27809694	      0.93275897	     -0.08284215	     20.05624037	     -1.71810702	      3.38314523	     17.35232413	      0.30285519	      7.01621599	     -3.67636966	     -7.49999987	     21.22148763	     -7.45241598	      2.39297641	     16.95304436	      0.29588644	      4.89518816	     -2.99722661	     -7.49999987	     -6.60089945	     -1.41655550	     -6.62393770	      8.72086805	     -9.54320258	   -345.80128870	     68.48490470	     83.93655719	     10.64303700	    -12.14503630	      4.26767810	     48.16324361	     71.49543568
